<?xml version="1.0" encoding="iso-8859-1"?>
<!-- Generator: Adobe Illustrator 19.0.0, SVG Export Plug-In . SVG Version: 6.00 Build 0)  -->
<svg version="1.1" id="Capa_1" xmlns="http://www.w3.org/2000/svg" xmlns:xlink="http://www.w3.org/1999/xlink" x="0px" y="0px"
	 viewBox="0 0 512 512" style="enable-background:new 0 0 512 512;" xml:space="preserve">
<path style="fill:#FFB655;" d="M134.106,512c-5.008,0-10.037-0.463-15.034-1.396c-16.27-3.034-31.055-10.823-42.757-22.525
	c-31.828-31.829-31.828-83.617-0.001-115.445l56.848-56.848c2.93-2.928,7.678-2.928,10.607,0c2.929,2.93,2.929,7.678,0,10.607
	l-56.848,56.848c-25.979,25.979-25.979,68.251,0,94.231c19.323,19.321,49.093,24.875,74.083,13.815l236.628-104.726
	c3.786-1.676,8.218,0.036,9.894,3.823c1.677,3.787-0.035,8.217-3.823,9.893L167.074,505.004
	C156.588,509.644,145.401,512,134.106,512z"/>
<g>
	<path style="fill:#FFDAB5;" d="M246.682,30.666L221.374,5.359c-7.145-7.145-18.728-7.145-25.872,0l0,0
		c-7.145,7.145-7.145,18.728,0,25.872L220.81,56.54c7.145,7.145,18.728,7.145,25.872,0l0,0
		C253.826,49.394,253.826,37.811,246.682,30.666z"/>
	<path style="fill:#FFDAB5;" d="M418.586,66.841l25.308-25.309c7.145-7.145,7.145-18.728,0-25.872l0,0
		c-7.145-7.145-18.728-7.145-25.872,0l-25.309,25.308c-7.145,7.145-7.145,18.728,0,25.872l0,0
		C399.859,73.985,411.441,73.985,418.586,66.841z"/>
	<path style="fill:#FFDAB5;" d="M125.925,359.503l25.309-25.308c7.145-7.145,7.145-18.728,0-25.872l0,0
		c-7.145-7.145-18.728-7.145-25.872,0l-25.308,25.309c-7.145,7.145-7.145,18.728,0,25.872l0,0
		C107.197,366.647,118.78,366.647,125.925,359.503z"/>
	<path style="fill:#FFDAB5;" d="M428.889,212.874l25.309,25.309c7.145,7.145,7.145,18.728,0,25.872l0,0
		c-7.145,7.145-18.728,7.145-25.872,0l-25.308-25.309c-7.145-7.145-7.145-18.728,0-25.872l0,0
		C410.161,205.729,421.744,205.729,428.889,212.874z"/>
</g>
<path style="fill:#54B88B;" d="M396.726,31.906L239.57,26.878c-6.432-0.206-12.573,1.543-17.79,4.758l103.069,103.069l93.455-93.455
	C412.747,35.694,405.151,32.176,396.726,31.906z"/>
<path style="fill:#B5E489;" d="M427.649,62.83l5.028,157.156c0.206,6.432-1.543,12.573-4.758,17.79l-103.07-103.069l93.455-93.455
	C423.861,46.808,427.379,54.404,427.649,62.83z"/>
<path style="fill:#54B88B;" d="M427.918,237.775L324.849,134.706L125.643,333.912c8.174,8.174,20.66,12.037,33.361,7.495
	l252.473-90.281C418.495,248.616,424.194,243.817,427.918,237.775z"/>
<path style="fill:#B5E489;" d="M221.78,31.637l103.069,103.069L125.643,333.912c-8.174-8.174-12.037-20.66-7.495-33.362
	L208.43,48.077C210.939,41.06,215.738,35.361,221.78,31.637z"/>
<path style="opacity:0.1;enable-background:new    ;" d="M264.318,27.67l-24.749-0.792c-6.432-0.206-12.573,1.543-17.79,4.758l0,0
	c-6.042,3.724-10.841,9.423-13.35,16.441L118.148,300.55c-4.542,12.703-0.679,25.188,7.495,33.362s20.66,12.037,33.362,7.495
	l114.904-41.088C172.872,284.329,226.78,88.111,264.318,27.67z"/>
<g>
	<path style="fill:#FC9F65;" d="M361.686,449.43c-5.737,0-11.213-3.309-13.704-8.886l-17.819-39.885
		c-3.379-7.564,0.013-16.435,7.577-19.814c7.565-3.38,16.435,0.013,19.814,7.577l17.819,39.885
		c3.379,7.563-0.013,16.435-7.577,19.813C365.808,449.009,363.73,449.43,361.686,449.43z"/>
	<path style="fill:#FC9F65;" d="M304.142,475.138c-5.737,0-11.213-3.309-13.704-8.885l-17.82-39.885
		c-3.379-7.564,0.013-16.435,7.576-19.814c7.564-3.38,16.436,0.014,19.814,7.576l17.82,39.885
		c3.379,7.564-0.013,16.436-7.576,19.814C308.264,474.718,306.185,475.138,304.142,475.138z"/>
</g>
<g>
</g>
<g>
</g>
<g>
</g>
<g>
</g>
<g>
</g>
<g>
</g>
<g>
</g>
<g>
</g>
<g>
</g>
<g>
</g>
<g>
</g>
<g>
</g>
<g>
</g>
<g>
</g>
<g>
</g>
</svg>
