<?xml version="1.0" encoding="iso-8859-1"?>
<!-- Generator: Adobe Illustrator 19.0.0, SVG Export Plug-In . SVG Version: 6.00 Build 0)  -->
<svg version="1.1" id="Capa_1" xmlns="http://www.w3.org/2000/svg" xmlns:xlink="http://www.w3.org/1999/xlink" x="0px" y="0px"
	 viewBox="0 0 512 512" style="enable-background:new 0 0 512 512;" xml:space="preserve">
<g>
	<path style="fill:#FFB545;" d="M339.454,55.933l2.847,0.934l-1.793,2.49c-2.493,3.463-1.706,8.292,1.756,10.785
		c1.366,0.983,2.944,1.457,4.507,1.457c2.401,0,4.768-1.117,6.277-3.213l1.688-2.345l1.688,2.345
		c1.509,2.097,3.877,3.213,6.277,3.213c1.564,0,3.142-0.474,4.507-1.457c3.462-2.493,4.25-7.32,1.756-10.785l-1.793-2.49
		l2.847-0.934c4.055-1.33,6.263-5.695,4.934-9.75c-1.33-4.056-5.697-6.264-9.75-4.935l-2.743,0.899v-3.002
		c0-4.268-3.459-7.726-7.726-7.726c-4.267,0-7.726,3.458-7.726,7.726v3.002l-2.743-0.899c-4.055-1.326-8.42,0.88-9.75,4.935
		C333.19,50.238,335.399,54.603,339.454,55.933z"/>
	<path style="fill:#FFB545;" d="M445.372,142.29l-1.792-2.49l2.848-0.934c4.055-1.33,6.263-5.695,4.934-9.75
		c-1.33-4.056-5.697-6.264-9.75-4.935l-2.743,0.899v-3.001c0-4.268-3.459-7.726-7.726-7.726c-4.267,0-7.726,3.458-7.726,7.726v3.001
		l-2.743-0.899c-4.054-1.324-8.419,0.88-9.75,4.935c-1.33,4.055,0.88,8.42,4.934,9.75l2.848,0.934l-1.793,2.49
		c-2.492,3.463-1.706,8.292,1.757,10.785c3.468,2.496,8.293,1.704,10.785-1.756l1.687-2.345c1.624,2.255,3.4,5.558,7.965,5.558
		C445.33,154.532,449.07,147.43,445.372,142.29z"/>
</g>
<g>
	<circle style="fill:#FF983B;" cx="348.191" cy="111.259" r="7.726"/>
	<circle style="fill:#FF983B;" cx="471.823" cy="236.333" r="7.726"/>
	<circle style="fill:#FF983B;" cx="391.469" cy="177.191" r="7.726"/>
	<circle style="fill:#FF983B;" cx="474.913" cy="76.228" r="7.726"/>
</g>
<g>
	<path style="fill:#FFCF5D;" d="M321.334,131.703l-19.054-2.769l-8.522-17.266c-2.834-5.743-11.023-5.743-13.857,0l-8.522,17.266
		l-19.054,2.769c-6.338,0.921-8.868,8.709-4.282,13.178l13.788,13.44l-3.254,18.977c-1.083,6.311,5.542,11.125,11.21,8.145
		l13.447-7.069c2.251-1.184,4.94-1.184,7.191,0l13.447,7.069c5.668,2.98,12.293-1.834,11.21-8.145l-3.254-18.977l13.788-13.44
		C330.202,140.411,327.672,132.623,321.334,131.703z"/>
	<path style="fill:#FFCF5D;" d="M402.073,241.205l-23.864-3.468l-10.673-21.625c-3.549-7.192-13.805-7.192-17.354,0l-10.673,21.625
		l-23.864,3.468c-7.937,1.154-11.106,10.908-5.363,16.506l17.268,16.832l-4.076,23.767c-1.356,7.905,6.941,13.933,14.04,10.201
		l16.841-8.854c2.819-1.481,6.187-1.481,9.006,0l16.841,8.854c7.099,3.732,15.396-2.296,14.04-10.201l-4.076-23.767l17.268-16.832
		C413.18,252.113,410.01,242.358,402.073,241.205z"/>
</g>
<path style="fill:#5C87BD;" d="M496.547,480.576H235.911c-8.534,0-15.453-6.919-15.453-15.453v-190.58H512v190.58
	C512,473.657,505.081,480.576,496.547,480.576z"/>
<path style="fill:#456EA2;" d="M481.095,457.397H220.459v7.726c0,8.534,6.919,15.453,15.453,15.453h260.636
	c8.534,0,15.453-6.919,15.453-15.453v-190.58h-23.179v175.128C488.821,453.938,485.362,457.397,481.095,457.397z"/>
<path style="fill:#FF5368;" d="M114.473,222.586l-20.961,78.228l-78.228,20.961c-15.321,4.105-20.451,23.255-9.237,34.471
	c16.956,16.956,41.64,41.64,58.756,58.756l142.895-142.895c-16.951-16.951-41.638-41.638-58.756-58.756
	C137.728,202.135,118.577,207.266,114.473,222.586z"/>
<g>
	<path style="fill:#D9435B;" d="M141.241,239.892c-4.122-1.105-8.359,1.341-9.462,5.463l-19.806,73.919L38.054,339.08
		c-4.123,1.103-6.568,5.34-5.463,9.462c1.104,4.122,5.34,6.567,9.462,5.463l78.228-20.961c0.007-0.002,0.013-0.005,0.022-0.007
		c0.242-0.066,0.476-0.153,0.711-0.242c0.088-0.033,0.18-0.057,0.265-0.093c0.107-0.044,0.207-0.104,0.312-0.154
		c0.81-0.384,1.539-0.886,2.151-1.498c0.002-0.002,0.003-0.003,0.005-0.005s0.003-0.003,0.005-0.005
		c0.612-0.612,1.114-1.341,1.498-2.151c0.049-0.105,0.109-0.204,0.154-0.312c0.036-0.084,0.06-0.178,0.093-0.265
		c0.089-0.234,0.176-0.468,0.242-0.711c0.002-0.007,0.005-0.013,0.007-0.022l20.961-78.228
		C147.808,245.232,145.363,240.996,141.241,239.892z"/>
	<circle style="fill:#D9435B;" cx="106.624" cy="313.927" r="30.905"/>
</g>
<path style="fill:#5C87BD;" d="M216.38,216.075L8.773,423.682c-3.017,3.017-3.017,7.91,0,10.927l43.706,43.706
	c3.017,3.017,7.91,3.017,10.927,0l207.607-207.607c3.017-3.017,3.017-7.91,0-10.927l-43.706-43.706
	C224.29,213.058,219.398,213.058,216.38,216.075z"/>
<path style="fill:#456EA2;" d="M216.38,216.075l-10.927,10.927l32.78,32.78c3.017,3.017,3.017,7.91,0,10.927L41.552,467.39
	l10.927,10.927c3.017,3.017,7.91,3.017,10.927,0L271.014,270.71c3.017-3.017,3.017-7.91,0-10.927l-43.706-43.706
	C224.29,213.058,219.398,213.058,216.38,216.075z"/>
<g>
</g>
<g>
</g>
<g>
</g>
<g>
</g>
<g>
</g>
<g>
</g>
<g>
</g>
<g>
</g>
<g>
</g>
<g>
</g>
<g>
</g>
<g>
</g>
<g>
</g>
<g>
</g>
<g>
</g>
</svg>
