<?xml version="1.0" encoding="iso-8859-1"?>
<!-- Generator: Adobe Illustrator 19.0.0, SVG Export Plug-In . SVG Version: 6.00 Build 0)  -->
<svg version="1.1" id="Capa_1" xmlns="http://www.w3.org/2000/svg" xmlns:xlink="http://www.w3.org/1999/xlink" x="0px" y="0px"
	 viewBox="0 0 472 472" style="enable-background:new 0 0 472 472;" xml:space="preserve">
<polygon style="fill:#6B968B;" points="200.88,326.376 220,56 444,56 460.632,326.376 "/>
<polygon style="fill:#A8C4CD;" points="260,472 244,176 20,176 4,472 "/>
<rect x="244" y="360" style="fill:#F9CD74;" width="208" height="112"/>
<rect x="228" y="312" style="fill:#F9B659;" width="240" height="48"/>
<rect x="316" y="312" style="fill:#EB9850;" width="64" height="160"/>
<g>
	<path style="fill:#C4DEED;" d="M172,440H20c-4.418,0-8-3.582-8-8s3.582-8,8-8h152c4.418,0,8,3.582,8,8S176.418,440,172,440z"/>
	<path style="fill:#C4DEED;" d="M212,440h-8c-4.418,0-8-3.582-8-8s3.582-8,8-8h8c4.418,0,8,3.582,8,8S216.418,440,212,440z"/>
</g>
<g>
	<path style="fill:#F9CD74;" d="M360.8,320H348c-4.418,0-8-3.582-8-8v-12.8c0.048-32.675,26.525-59.152,59.2-59.2H412
		c4.418,0,8,3.582,8,8v12.8c-0.001,4.359-0.478,8.705-1.424,12.96c-0.959,4.314-5.234,7.035-9.548,6.076
		c-4.314-0.959-7.035-5.234-6.076-9.548l0,0c0.696-3.115,1.047-6.296,1.048-9.488V256h-4.8c-23.842,0.04-43.16,19.358-43.2,43.2v4.8
		h4.8c11.881,0.042,23.246-4.849,31.384-13.504c2.984-3.259,8.044-3.482,11.303-0.498c3.259,2.984,3.482,8.044,0.498,11.303
		c-0.063,0.069-0.127,0.137-0.193,0.203C392.647,313.366,377.076,320.065,360.8,320z"/>
	<path style="fill:#F9CD74;" d="M348,320h-12.8c-32.675-0.048-59.152-26.525-59.2-59.2V248c0-4.418,3.582-8,8-8h12.8
		c32.675,0.048,59.152,26.525,59.2,59.2V312C356,316.418,352.418,320,348,320z M292,256v4.8c0.04,23.842,19.358,43.16,43.2,43.2h4.8
		v-4.8c-0.04-23.842-19.358-43.16-43.2-43.2H292z"/>
</g>
<g>
	<path style="fill:#608778;" d="M404,88c-4.418,0-8-3.582-8-8c0-35.346-28.654-64-64-64s-64,28.654-64,64c0,4.418-3.582,8-8,8
		s-8-3.582-8-8c0-44.183,35.817-80,80-80s80,35.817,80,80C412,84.418,408.418,88,404,88z"/>
	<path style="fill:#608778;" d="M260,128c-13.255,0-24-10.745-24-24s10.745-24,24-24s24,10.745,24,24S273.255,128,260,128z M260,96
		c-4.418,0-8,3.582-8,8s3.582,8,8,8s8-3.582,8-8S264.418,96,260,96z"/>
	<path style="fill:#608778;" d="M404,128c-13.255,0-24-10.745-24-24s10.745-24,24-24s24,10.745,24,24S417.255,128,404,128z M404,96
		c-4.418,0-8,3.582-8,8s3.582,8,8,8s8-3.582,8-8S408.418,96,404,96z"/>
	<path style="fill:#608778;" d="M204,208c-4.418,0-8-3.582-8-8c0-35.346-28.654-64-64-64s-64,28.654-64,64c0,4.418-3.582,8-8,8
		s-8-3.582-8-8c0-44.183,35.817-80,80-80s80,35.817,80,80C212,204.418,208.418,208,204,208z"/>
	<path style="fill:#608778;" d="M60,248c-13.255,0-24-10.745-24-24s10.745-24,24-24s24,10.745,24,24S73.255,248,60,248z M60,216
		c-4.418,0-8,3.582-8,8s3.582,8,8,8s8-3.582,8-8S64.418,216,60,216z"/>
	<path style="fill:#608778;" d="M204,248c-13.255,0-24-10.745-24-24s10.745-24,24-24s24,10.745,24,24S217.255,248,204,248z M204,216
		c-4.418,0-8,3.582-8,8s3.582,8,8,8s8-3.582,8-8S208.418,216,204,216z"/>
</g>
<g>
</g>
<g>
</g>
<g>
</g>
<g>
</g>
<g>
</g>
<g>
</g>
<g>
</g>
<g>
</g>
<g>
</g>
<g>
</g>
<g>
</g>
<g>
</g>
<g>
</g>
<g>
</g>
<g>
</g>
</svg>
